<svg width="49" height="58" viewBox="0 0 49 58" fill="none" xmlns="http://www.w3.org/2000/svg">
<path d="M11.85 6.00875C13.14 7.38875 15.56 10.1487 17.72 13.5887C20.69 18.3188 22.2 22.6888 22.2 26.5788C22.2 32.0188 17.56 36.4387 11.85 36.4387C6.14 36.4387 1.5 32.0188 1.5 26.5788C1.5 22.6888 3.01 18.3188 5.98 13.5887C8.14 10.1487 10.56 7.38875 11.85 6.00875ZM11.85 4.21875C11.63 4.21875 11.41 4.30875 11.24 4.47875C8.81 6.98875 0 16.7788 0 26.5788C0 32.8488 5.3 37.9387 11.85 37.9387C18.4 37.9387 23.7 32.8488 23.7 26.5788C23.7 16.7788 14.89 6.98875 12.46 4.47875C12.29 4.30875 12.07 4.21875 11.85 4.21875Z" fill="#0014B7"/>
<path d="M36.2094 25.8781C37.4994 27.2581 39.9194 30.0181 42.0794 33.4581C45.0494 38.1881 46.5594 42.5581 46.5594 46.4481C46.5594 51.8881 41.9194 56.3081 36.2094 56.3081C30.4994 56.3081 25.8594 51.8881 25.8594 46.4481C25.8594 42.5581 27.3694 38.1881 30.3394 33.4581C32.4994 30.0181 34.9194 27.2581 36.2094 25.8781ZM36.2094 24.0781C35.9894 24.0781 35.7694 24.1681 35.5994 24.3381C33.1794 26.8481 24.3594 36.6481 24.3594 46.4381C24.3594 52.7081 29.6594 57.7981 36.2094 57.7981C42.7594 57.7981 48.0594 52.7081 48.0594 46.4381C48.0594 36.6381 39.2494 26.8481 36.8194 24.3381C36.6494 24.1681 36.4294 24.0781 36.2094 24.0781Z" fill="#0014B7"/>
<path d="M18.1094 6.4C21.2794 7.43 21.8394 11.8 21.8894 11.8C21.9394 11.8 22.4994 7.43 25.6694 6.4C22.4994 5.37 21.9394 1 21.8894 1C21.8394 1 21.2794 5.37 18.1094 6.4Z" stroke="#0014B7" stroke-width="1.5" stroke-linecap="round" stroke-linejoin="round"/>
<path d="M27.0781 37.9414H45.0481" stroke="#0014B7" stroke-width="1.5" stroke-linecap="round" stroke-linejoin="round"/>
<path d="M25.6562 42.8906H46.4663" stroke="#0014B7" stroke-width="1.5" stroke-linecap="round" stroke-linejoin="round"/>
<path d="M25.6562 47.8281H46.4663" stroke="#0014B7" stroke-width="1.5" stroke-linecap="round" stroke-linejoin="round"/>
<path d="M27.6172 52.7812H45.0472" stroke="#0014B7" stroke-width="1.5" stroke-linecap="round" stroke-linejoin="round"/>
</svg>
