<svg width="100" height="100" viewBox="0 0 100 100" fill="none" xmlns="http://www.w3.org/2000/svg">
<g clip-path="url(#clip0_875_188)">
<path d="M99.2495 49.9998C99.2495 77.1996 77.1996 99.2495 49.9998 99.2495C22.7999 99.2495 0.75 77.1996 0.75 49.9998C0.75 22.7999 22.7999 0.75 49.9998 0.75C77.1996 0.75 99.2495 22.7999 99.2495 49.9998Z" stroke="#0014B7" stroke-width="1.5" stroke-miterlimit="10"/>
<path d="M70.2965 22.7722H29.7026V79.2076H43.7977L43.9278 22.7722" stroke="#0014B7" stroke-width="1.5" stroke-linecap="round" stroke-linejoin="round"/>
<path d="M37.6235 26.7327H43.5641" stroke="#0014B7" stroke-width="1.5" stroke-linecap="round" stroke-linejoin="round"/>
<path d="M39.604 32.6731H43.5644" stroke="#0014B7" stroke-width="1.5" stroke-linecap="round" stroke-linejoin="round"/>
<path d="M37.6235 38.6138H43.5641" stroke="#0014B7" stroke-width="1.5" stroke-linecap="round" stroke-linejoin="round"/>
<path d="M39.604 44.5542H43.5644" stroke="#0014B7" stroke-width="1.5" stroke-linecap="round" stroke-linejoin="round"/>
<path d="M37.6235 50.4949H43.5641" stroke="#0014B7" stroke-width="1.5" stroke-linecap="round" stroke-linejoin="round"/>
<path d="M39.604 56.4353H43.5644" stroke="#0014B7" stroke-width="1.5" stroke-linecap="round" stroke-linejoin="round"/>
<path d="M37.6235 62.376H43.5641" stroke="#0014B7" stroke-width="1.5" stroke-linecap="round" stroke-linejoin="round"/>
<path d="M37.6235 73.2671H43.5641" stroke="#0014B7" stroke-width="1.5" stroke-linecap="round" stroke-linejoin="round"/>
<path d="M39.604 67.3264H43.5644" stroke="#0014B7" stroke-width="1.5" stroke-linecap="round" stroke-linejoin="round"/>
<path d="M57.8623 37.3513V79.2076H64.0187V37.3513L71.2866 39.7549L60.9405 27.7227L50.4946 39.7549L57.8623 37.3513Z" stroke="#0014B7" stroke-width="1.5" stroke-linecap="round" stroke-linejoin="round"/>
</g>
<defs>
<clipPath id="clip0_875_188">
<rect width="100" height="100" fill="white"/>
</clipPath>
</defs>
</svg>
