<svg width="100" height="100" viewBox="0 0 100 100" fill="none" xmlns="http://www.w3.org/2000/svg">
<g clip-path="url(#clip0_875_695)">
<path d="M99.25 50C99.25 77.2 77.2 99.25 50 99.25C22.8 99.25 0.75 77.2 0.75 50C0.75 22.8 22.8 0.75 50 0.75C77.2 0.75 99.25 22.8 99.25 50Z" stroke="#0014B7" stroke-width="1.5" stroke-miterlimit="10"/>
<path d="M71.8353 64.0094C73.6085 61.1225 73.5938 58.1331 73.6084 56.7556C73.6084 52.0223 73.8282 42.6583 73.8722 30.3195C66.3107 26.8465 58.7345 23.3734 51.1729 19.9004C42.9959 22.9485 34.8335 25.9819 26.6565 29.0299C26.0703 46.2339 26.0557 58.7632 26.3488 60.5217C26.6565 62.3095 27.4478 63.7896 27.4478 63.7896C27.4478 63.7896 27.7409 64.3318 28.1072 64.8594C30.3933 68.0979 36.0791 72.4209 36.0791 72.4209C36.0791 72.4209 40.3435 75.6741 45.4871 78.7662C46.3224 79.2644 47.8318 80.1437 49.8394 80.129C51.2169 80.129 52.2573 79.6894 53.1072 79.2937C56.6682 77.6671 59.5844 75.4103 61.1817 74.1647C64.303 71.7175 66.0029 70.0909 69.4027 66.8084C70.5897 65.6653 71.2052 65.0206 71.8353 64.0094Z" stroke="#0014B7" stroke-width="1.5" stroke-linecap="round" stroke-linejoin="round"/>
<path d="M51.2163 35.3458L54.66 43.2737L63.262 44.109C64.4197 44.2262 64.8739 45.6476 64.0093 46.4243L57.5322 52.1541L59.4079 60.5949C59.657 61.7233 58.4408 62.6025 57.4443 62.0163L49.9999 57.6347L42.5556 62.0163C41.5592 62.6025 40.3429 61.7233 40.592 60.5949L42.4677 52.1541L35.9906 46.4243C35.126 45.6623 35.5949 44.2262 36.7379 44.109L45.3399 43.2737L48.7837 35.3458C49.2526 34.2907 50.7473 34.2907 51.2163 35.3458Z" stroke="#0014B7" stroke-width="1.5" stroke-linecap="round" stroke-linejoin="round"/>
</g>
<defs>
<clipPath id="clip0_875_695">
<rect width="100" height="100" fill="white"/>
</clipPath>
</defs>
</svg>
